<svg width="73" height="30" viewBox="0 0 73 30" fill="none" xmlns="http://www.w3.org/2000/svg">
<g clip-path="url(#clip0_242_179)">
<path d="M11.2709 0.236328C11.2913 0.236339 11.3109 0.243882 11.3261 0.257533L22.2096 10.03C22.2222 10.0415 22.2311 10.0566 22.2351 10.0733C22.2391 10.0899 22.2381 10.1074 22.2322 10.1235C22.2262 10.1394 22.2155 10.1531 22.2016 10.1628C22.1877 10.1725 22.1713 10.1777 22.1544 10.1777H0.39367C0.376796 10.1777 0.360323 10.1725 0.346435 10.1628C0.332547 10.1531 0.321901 10.1394 0.315908 10.1235C0.309964 10.1074 0.308936 10.0899 0.312957 10.0733C0.316978 10.0566 0.325863 10.0415 0.338459 10.03L11.218 0.257533C11.2327 0.244522 11.2514 0.237032 11.2709 0.236328ZM21.9343 10.0088L11.2709 0.434243L0.617622 10.0088H21.9343Z" fill="#1C2329" stroke="#1C2329" stroke-width="0.707317" stroke-miterlimit="10"/>
<path d="M22.1569 10.0074C22.1687 10.0073 22.1804 10.01 22.1911 10.0152C22.2061 10.0219 22.2189 10.0329 22.2278 10.0469C22.2366 10.0608 22.2412 10.0772 22.2409 10.0937V29.6372C22.2412 29.6538 22.2366 29.6701 22.2278 29.6841C22.2189 29.698 22.2061 29.7091 22.1911 29.7157C22.1764 29.7224 22.1602 29.7247 22.1443 29.7222C22.1284 29.7196 22.1136 29.7125 22.1017 29.7016L11.2174 19.9291C11.2086 19.9212 11.2016 19.9115 11.1968 19.9007C11.1919 19.8899 11.1895 19.8781 11.1895 19.8663C11.1895 19.8544 11.1919 19.8426 11.1968 19.8318C11.2016 19.821 11.2086 19.8113 11.2174 19.8034L22.0978 10.0286C22.1142 10.0143 22.1353 10.0068 22.1569 10.0074ZM22.0737 29.4487V10.2799L11.4025 19.8615L22.0737 29.4487Z" fill="#1C2329" stroke="#1C2329" stroke-width="0.707317" stroke-miterlimit="10"/>
<path d="M0.392591 10.0094C0.412904 10.0096 0.432475 10.0171 0.447801 10.0306L11.3282 19.8039C11.337 19.8117 11.344 19.8214 11.3488 19.8322C11.3536 19.8431 11.3561 19.8548 11.3561 19.8667C11.3561 19.8786 11.3536 19.8903 11.3488 19.9011C11.344 19.912 11.337 19.9216 11.3282 19.9295L0.447801 29.702C0.435938 29.713 0.421118 29.7202 0.405206 29.7227C0.389294 29.7253 0.373 29.723 0.358376 29.7162C0.34333 29.7095 0.330574 29.6985 0.321717 29.6845C0.312861 29.6705 0.3083 29.6542 0.308608 29.6376V10.0942C0.3083 10.0776 0.312861 10.0613 0.321717 10.0473C0.330574 10.0333 0.34333 10.0223 0.358376 10.0156C0.369165 10.011 0.380862 10.0088 0.392591 10.0094ZM11.147 19.8667L0.475795 10.285V29.4507L11.147 19.8667Z" fill="#1C2329" stroke="#1C2329" stroke-width="0.707317" stroke-miterlimit="10"/>
<path d="M14.8642 3.4248C14.8788 3.42487 14.8931 3.42874 14.9058 3.43603C14.9185 3.44333 14.9291 3.45379 14.9366 3.46643C14.9438 3.47923 14.9476 3.49371 14.9476 3.50845C14.9476 3.52318 14.9438 3.53767 14.9366 3.55047L11.3463 10.0275L22.2244 29.5969L22.0774 29.6801L11.2522 10.2026L0.462842 29.6801L0.31665 29.6016L11.1566 10.0322L7.57412 3.58581C7.56666 3.57309 7.56272 3.55858 7.56272 3.54379C7.56272 3.52901 7.56666 3.51449 7.57412 3.50177C7.58144 3.4891 7.59187 3.47855 7.6044 3.47112C7.61693 3.4637 7.63113 3.45965 7.64566 3.45936L14.8619 3.42952L14.8642 3.4248ZM11.2538 9.85472L14.7212 3.59445L7.79107 3.62351L11.2538 9.85472Z" fill="#1C2329" stroke="#1C2329" stroke-width="0.707317" stroke-miterlimit="10"/>
<path d="M27.9061 27.0699C28.0429 27.3841 28.4084 27.7501 28.7848 27.9339L28.305 28.9486C27.6207 28.6258 27.1067 28.0721 26.8672 27.5074L27.9061 27.0699ZM32.9162 27.0008C32.9162 28.2574 31.9232 29.3413 30.0857 29.3413C29.9037 29.3417 29.7219 29.3301 29.5414 29.3067L30.0546 28.2229C31.0134 28.2347 31.7654 27.7619 31.7654 27.0354C31.7654 26.3089 31.0461 26.0324 29.6876 25.6405C28.0904 25.1795 27.0398 24.684 27.0857 23.2891C27.1199 21.9752 28.1814 21.0759 29.8361 21.0759C30.1797 21.072 30.5221 21.1185 30.8524 21.2141L30.2342 22.2076C30.1316 22.1967 29.9831 22.1849 29.8688 22.1849C28.6938 22.1849 28.2482 22.7613 28.2482 23.326C28.2482 23.9488 28.8073 24.2253 30.0748 24.5826C31.6954 25.0413 32.9162 25.5487 32.9162 26.9985V27.0008Z" fill="#1C2329"/>
<path d="M39.2733 21.1562V22.2511H33.4863V21.1562H39.2733ZM35.8378 23.8187H36.9218V29.2253H35.8378V23.8187Z" fill="#1C2329"/>
<path d="M45.7342 29.2253H44.5359L42.3329 22.8048L40.1299 29.2253H38.9316L41.7964 21.1562H42.8578L45.7342 29.2253Z" fill="#1C2329"/>
<path d="M49.6845 26.3547H47.7988V29.2253H46.7031V25.2599H49.6938C50.6526 25.2599 51.1892 24.5452 51.1892 23.7614C51.1892 22.9775 50.6526 22.2511 49.6938 22.2511H46.7031V21.1562H49.6938C51.3144 21.1562 52.3074 22.3202 52.3074 23.7614C52.3074 24.8216 51.7631 25.7327 50.812 26.1364L52.536 29.2253H51.2918L49.6845 26.3547Z" fill="#1C2329"/>
<path d="M58.8925 21.1562V22.2511H53.1055V21.1562H58.8925ZM55.457 23.8187H56.541V29.2253H55.457V23.8187Z" fill="#1C2329"/>
<path d="M61.0156 22.4584H59.9199V21.1562H61.0156V22.4584ZM64.885 26.0091L65.9464 26.4803C65.7645 28.3362 64.5467 29.3077 62.9448 29.3077C61.21 29.3077 59.9199 28.1548 59.9199 25.9761V23.5886H61.0156V25.94C61.0156 27.5767 61.8266 28.2113 62.9448 28.2113C64.063 28.2113 64.8624 27.6003 64.885 26.0091ZM65.9697 21.1562V25.1216L64.885 24.6504V21.1562H65.9697Z" fill="#1C2329"/>
<path d="M72.9988 23.7614C72.9988 25.1908 71.9941 26.3531 70.3852 26.3531H68.4785V29.2237H67.3945V25.2599H70.3852C71.344 25.2599 71.8689 24.5452 71.8689 23.7614C71.8689 22.9775 71.3549 22.2511 70.3852 22.2511H67.3945V21.1562H70.3852C72.0174 21.1562 72.9988 22.3202 72.9988 23.7614Z" fill="#1C2329"/>
<path d="M30.4454 15.1141V17.585H29.7075V15.1141L26.877 10.438H27.6779L30.104 14.4505L32.5302 10.438H33.2767L30.4454 15.1141Z" fill="#1C2329"/>
<path d="M35.323 17.1706C34.7681 16.8687 34.3064 16.4182 33.9886 15.8684C33.6735 15.3008 33.5081 14.661 33.5081 14.0102C33.5081 13.3595 33.6735 12.7196 33.9886 12.152C34.3065 11.6025 34.7682 11.1522 35.323 10.8506C35.909 10.5395 36.5608 10.3765 37.2228 10.3755C37.8848 10.3745 38.5372 10.5357 39.124 10.8451C39.6764 11.1485 40.136 11.5988 40.4529 12.1473C40.771 12.7158 40.9382 13.3577 40.9382 14.0106C40.9382 14.6636 40.771 15.3055 40.4529 15.8739C40.136 16.4222 39.6764 16.8723 39.124 17.1753C38.5372 17.4846 37.8849 17.6458 37.2229 17.645C36.561 17.6441 35.9091 17.4814 35.323 17.1706ZM38.7445 16.5886C39.1897 16.3411 39.558 15.9735 39.8083 15.5268C40.0603 15.062 40.1924 14.5406 40.1924 14.0106C40.1924 13.4807 40.0603 12.9593 39.8083 12.4944C39.5588 12.0479 39.1913 11.6803 38.7468 11.4326C38.2794 11.181 37.7579 11.0493 37.2282 11.0493C36.6985 11.0493 36.1769 11.181 35.7095 11.4326C35.2621 11.6799 34.8912 12.0474 34.6379 12.4944C34.3825 12.9581 34.2484 13.48 34.2484 14.0106C34.2484 14.5413 34.3825 15.0631 34.6379 15.5268C34.8915 15.9737 35.2623 16.3411 35.7095 16.5886C36.1771 16.8398 36.6986 16.9711 37.2282 16.9711C37.7578 16.9711 38.2792 16.8398 38.7468 16.5886H38.7445Z" fill="#1C2329"/>
<path d="M43.3249 16.8498C42.8127 16.3189 42.5566 15.5464 42.5566 14.5322V10.438H43.3086V14.5016C43.3086 15.3325 43.4939 15.9519 43.8646 16.3598C44.2352 16.7676 44.771 16.9718 45.4719 16.9724C46.1795 16.9724 46.7187 16.7682 47.0893 16.3598C47.46 15.9514 47.6453 15.332 47.6453 14.5016V10.438H48.3732V14.5322C48.3732 15.5469 48.1186 16.3194 47.6096 16.8498C47.1005 17.3802 46.3879 17.6457 45.4719 17.6462C44.5528 17.6462 43.8371 17.3808 43.3249 16.8498Z" fill="#1C2329"/>
<path d="M55.4551 17.5825L53.8377 15.2853C53.6497 15.306 53.4607 15.3162 53.2716 15.3159H51.3711V17.5825H50.623V10.4355H53.2716C54.1747 10.4355 54.8823 10.6534 55.3945 11.089C55.9067 11.5246 56.1628 12.1236 56.1628 12.8859C56.1628 13.4446 56.0228 13.9158 55.7428 14.2996C55.4629 14.6834 55.0637 14.9607 54.5453 15.1313L56.274 17.5817L55.4551 17.5825ZM54.8587 14.2054C55.2288 13.8912 55.4142 13.4522 55.4147 12.8883C55.4147 12.3123 55.2294 11.8673 54.8587 11.5531C54.488 11.239 53.9523 11.084 53.2514 11.0882H51.3711V14.6719H53.2514C53.9523 14.6724 54.488 14.5161 54.8587 14.203V14.2054Z" fill="#1C2329"/>
</g>
<defs>
<clipPath id="clip0_242_179">
<rect width="73" height="30" fill="white"/>
</clipPath>
</defs>
</svg>
